<svg width="30" height="19" viewBox="0 0 30 19" fill="none" xmlns="http://www.w3.org/2000/svg">
<path d="M29.874 7.36094H26.1935V3.68048H24.3533V7.36094H20.6729V9.20117H24.3533V12.8816H26.1935V9.20117H29.874V7.36094Z" fill="#828282"/>
<path d="M9.6318 11.0414H14.8378C14.0778 13.1834 12.0315 14.7218 9.6318 14.7218C6.58807 14.7218 4.11112 12.2449 4.11112 9.20114C4.11112 6.1574 6.58807 3.68046 9.6318 3.68046C10.9512 3.68046 12.221 4.15339 13.2074 5.01278L15.6254 2.23772C13.9692 0.794979 11.8419 0 9.6318 0C4.5583 0 0.430664 4.12763 0.430664 9.20114C0.430664 14.2746 4.5583 18.4023 9.6318 18.4023C14.7053 18.4023 18.8329 14.2746 18.8329 9.20114V7.36091H9.6318V11.0414Z" fill="#828282"/>
</svg>
