<svg width="22" height="22" viewBox="0 0 22 22" fill="none" xmlns="http://www.w3.org/2000/svg">
<path fill-rule="evenodd" clip-rule="evenodd" d="M6.2896 0.13151C4.54525 0.210215 3.03334 0.636687 1.81251 1.85237C0.587416 3.07443 0.166241 4.59233 0.0873399 6.31853C0.0382932 7.39595 -0.248507 15.5356 0.583152 17.6702C1.14399 19.1103 2.24857 20.2176 3.70184 20.7802C4.37996 21.044 5.15407 21.2225 6.2896 21.2747C15.7844 21.7043 19.304 21.4704 20.7882 17.6702C21.0515 16.9938 21.2328 16.2203 21.2829 15.0876C21.7169 5.56851 21.2125 3.50518 19.5578 1.85237C18.2452 0.543087 16.7013 -0.348167 6.2896 0.13151ZM6.37701 19.3602C5.33744 19.3134 4.77341 19.1402 4.39703 18.9945C3.45022 18.6265 2.73905 17.9182 2.37333 16.977C1.73999 15.355 1.95005 7.65139 2.00656 6.40486C2.062 5.18386 2.30937 4.06795 3.17088 3.20645C4.23711 2.14285 5.61466 1.6216 14.9943 2.04491C16.2183 2.10021 17.3368 2.34707 18.2004 3.20645C19.2667 4.27003 19.7955 5.65819 19.3648 15.0018C19.3178 16.0388 19.1441 16.6015 18.998 16.977C18.033 19.4498 15.8131 19.7931 6.37701 19.3602ZM15.0977 5.02515C15.0977 5.72925 15.6703 6.30179 16.3772 6.30179C17.0841 6.30179 17.6577 5.72925 17.6577 5.02515C17.6577 4.32105 17.0841 3.74902 16.3772 3.74902C15.6703 3.74902 15.0977 4.32105 15.0977 5.02515ZM5.21057 10.7026C5.21057 13.7189 7.66184 16.1644 10.6857 16.1644C13.7095 16.1644 16.1608 13.7189 16.1608 10.7026C16.1608 7.68622 13.7095 5.24228 10.6857 5.24228C7.66184 5.24228 5.21057 7.68622 5.21057 10.7026ZM7.13191 10.7026C7.13191 8.74556 8.72273 7.15777 10.6857 7.15777C12.6486 7.15777 14.2394 8.74556 14.2394 10.7026C14.2394 12.6606 12.6486 14.2489 10.6857 14.2489C8.72273 14.2489 7.13191 12.6606 7.13191 10.7026Z" fill="#828282"/>
</svg>
