<svg width="80" height="80" viewBox="0 0 80 80" fill="none" xmlns="http://www.w3.org/2000/svg">
<g clip-path="url(#clip0_252_3348)">
<rect opacity="0.5" width="80" height="80" rx="40" fill="#A58639"/>
</g>
<path fill-rule="evenodd" clip-rule="evenodd" d="M52.1875 39.9998H47.5V36.1903C47.5 34.0891 49.1817 32.3808 51.25 32.3808H51.7188C52.498 32.3808 53.125 31.7439 53.125 30.9522V28.0951C53.125 27.3034 52.498 26.6665 51.7188 26.6665H51.25C46.0703 26.6665 41.875 30.9284 41.875 36.1903V50.476C41.875 52.0534 43.1348 53.3332 44.6875 53.3332H52.1875C53.7402 53.3332 55 52.0534 55 50.476V42.857C55 41.2796 53.7402 39.9998 52.1875 39.9998ZM35.3125 39.9998C36.8652 39.9998 38.125 41.2796 38.125 42.857V50.476C38.125 52.0534 36.8652 53.3332 35.3125 53.3332H27.8125C26.2598 53.3332 25 52.0534 25 50.476V36.1903C25 30.9284 29.1953 26.6665 34.375 26.6665H34.8438C35.623 26.6665 36.25 27.3034 36.25 28.0951V30.9522C36.25 31.7439 35.623 32.3808 34.8438 32.3808H34.375C32.3067 32.3808 30.625 34.0891 30.625 36.1903V39.9998H35.3125Z" fill="white"/>
<defs>
<clipPath id="clip0_252_3348">
<rect width="80" height="80" fill="white"/>
</clipPath>
</defs>
</svg>
