<svg width="13" height="16" viewBox="0 0 13 16" fill="none" xmlns="http://www.w3.org/2000/svg">
<path d="M6.2667 0C4.40194 0 2.8793 1.52264 2.8793 3.38741C2.8793 5.25217 4.40194 6.77481 6.2667 6.77481C8.13147 6.77481 9.65411 5.25217 9.65411 3.38741C9.65411 1.52264 8.13147 0 6.2667 0ZM6.2667 1.01628C7.58235 1.01628 8.63783 2.07188 8.63783 3.38741C8.63783 4.70293 7.58223 5.75853 6.2667 5.75853C4.95106 5.75853 3.89558 4.70293 3.89558 3.38741C3.89558 2.07188 4.95118 1.01628 6.2667 1.01628ZM6.2667 7.45236C2.76316 7.45236 0 10.7602 0 14.7353C0 14.87 0.0535177 14.9992 0.148861 15.0946C0.244084 15.1898 0.373335 15.2433 0.508138 15.2433H12.0253H12.0252C12.16 15.2433 12.2893 15.1898 12.3845 15.0946C12.4798 14.9992 12.5333 14.87 12.5333 14.7353C12.5333 10.7602 9.77009 7.45236 6.26664 7.45236H6.2667ZM6.2667 8.46864C8.98234 8.46864 11.2538 10.9683 11.4748 14.2272H1.05856C1.27961 10.9684 3.55103 8.46864 6.2667 8.46864Z" fill="#333333"/>
</svg>
