<svg width="36" height="135" viewBox="0 0 36 135" fill="none" xmlns="http://www.w3.org/2000/svg">
<path d="M20.996 5.088C21.268 4.92 21.464 4.696 21.584 4.416C21.712 4.136 21.776 3.844 21.776 3.54C21.776 3.316 21.748 3.096 21.692 2.88C21.636 2.664 21.552 2.468 21.44 2.292C21.328 2.124 21.18 1.988 20.996 1.884C20.812 1.78 20.596 1.728 20.348 1.728C20.156 1.728 19.984 1.756 19.832 1.812C19.688 1.876 19.556 1.976 19.436 2.112C19.316 2.248 19.204 2.432 19.1 2.664C18.996 2.896 18.892 3.18 18.788 3.516C18.684 3.844 18.572 4.16 18.452 4.464C18.332 4.776 18.18 5.048 17.996 5.28C17.812 5.52 17.58 5.708 17.3 5.844C17.028 5.988 16.684 6.06 16.268 6.06C15.844 6.06 15.476 5.976 15.164 5.808C14.852 5.64 14.592 5.416 14.384 5.136C14.184 4.864 14.036 4.548 13.94 4.188C13.836 3.828 13.784 3.456 13.784 3.072C13.784 2.824 13.808 2.576 13.856 2.328C13.896 2.08 13.96 1.84 14.048 1.608C14.144 1.384 14.264 1.172 14.408 0.971999C14.56 0.771999 14.744 0.599999 14.96 0.455999L15.668 1.32C15.356 1.504 15.12 1.76 14.96 2.088C14.8 2.416 14.72 2.764 14.72 3.132C14.72 3.348 14.752 3.564 14.816 3.78C14.88 4.004 14.972 4.204 15.092 4.38C15.22 4.556 15.376 4.7 15.56 4.812C15.744 4.924 15.956 4.98 16.196 4.98C16.46 4.98 16.672 4.936 16.832 4.848C17 4.76 17.144 4.624 17.264 4.44C17.384 4.256 17.492 4.024 17.588 3.744C17.684 3.464 17.796 3.136 17.924 2.76C18.02 2.456 18.128 2.176 18.248 1.92C18.376 1.664 18.528 1.44 18.704 1.248C18.888 1.064 19.104 0.915999 19.352 0.803999C19.608 0.699999 19.912 0.647999 20.264 0.647999C20.672 0.647999 21.028 0.727999 21.332 0.887999C21.636 1.048 21.888 1.264 22.088 1.536C22.296 1.808 22.452 2.116 22.556 2.46C22.66 2.804 22.712 3.164 22.712 3.54C22.712 4.02 22.636 4.456 22.484 4.848C22.34 5.248 22.084 5.604 21.716 5.916L20.996 5.088ZM20.744 16.676C21.088 16.42 21.344 16.104 21.512 15.728C21.688 15.352 21.776 14.96 21.776 14.552C21.776 14.08 21.68 13.644 21.488 13.244C21.296 12.852 21.036 12.512 20.708 12.224C20.388 11.936 20.012 11.712 19.58 11.552C19.156 11.392 18.712 11.312 18.248 11.312C17.752 11.312 17.288 11.392 16.856 11.552C16.432 11.712 16.06 11.932 15.74 12.212C15.428 12.5 15.18 12.84 14.996 13.232C14.812 13.632 14.72 14.072 14.72 14.552C14.72 15.072 14.82 15.536 15.02 15.944C15.228 16.352 15.524 16.708 15.908 17.012L15.272 17.768C14.76 17.384 14.384 16.92 14.144 16.376C13.904 15.84 13.784 15.232 13.784 14.552C13.784 13.944 13.896 13.376 14.12 12.848C14.344 12.32 14.652 11.86 15.044 11.468C15.444 11.084 15.916 10.78 16.46 10.556C17.004 10.34 17.6 10.232 18.248 10.232C18.872 10.232 19.456 10.336 20 10.544C20.544 10.76 21.016 11.06 21.416 11.444C21.816 11.828 22.132 12.284 22.364 12.812C22.596 13.34 22.712 13.92 22.712 14.552C22.712 15.128 22.608 15.68 22.4 16.208C22.192 16.744 21.852 17.192 21.38 17.552L20.744 16.676ZM22.496 22.1732L22.496 24.3452C22.496 24.7532 22.472 25.1572 22.424 25.5572C22.376 25.9652 22.272 26.3292 22.112 26.6492C21.952 26.9692 21.716 27.2292 21.404 27.4292C21.1 27.6292 20.684 27.7292 20.156 27.7292C19.532 27.7292 19.028 27.5412 18.644 27.1652C18.26 26.7892 18.016 26.2692 17.912 25.6052L14 28.0172L14 26.7812L17.816 24.4772L17.816 23.1812L14 23.1812L14 22.1732L22.496 22.1732ZM18.752 23.1812L18.752 24.0812C18.752 24.3612 18.76 24.6492 18.776 24.9452C18.792 25.2492 18.844 25.5252 18.932 25.7732C19.02 26.0292 19.156 26.2372 19.34 26.3972C19.532 26.5652 19.804 26.6492 20.156 26.6492C20.46 26.6492 20.704 26.5892 20.888 26.4692C21.072 26.3492 21.212 26.1892 21.308 25.9892C21.412 25.7972 21.48 25.5772 21.512 25.3292C21.544 25.0892 21.56 24.8452 21.56 24.5972L21.56 23.1812L18.752 23.1812ZM13.784 36.4571C13.784 35.8091 13.896 35.2131 14.12 34.6691C14.344 34.1331 14.652 33.6651 15.044 33.2651C15.444 32.8731 15.916 32.5651 16.46 32.3411C17.012 32.1251 17.608 32.0171 18.248 32.0171C18.888 32.0171 19.48 32.1251 20.024 32.3411C20.576 32.5651 21.048 32.8731 21.44 33.2651C21.84 33.6651 22.152 34.1331 22.376 34.6691C22.6 35.2131 22.712 35.8091 22.712 36.4571C22.712 37.1051 22.6 37.6971 22.376 38.2331C22.152 38.7771 21.84 39.2451 21.44 39.6371C21.048 40.0371 20.576 40.3451 20.024 40.5611C19.48 40.7851 18.888 40.8971 18.248 40.8971C17.608 40.8971 17.012 40.7851 16.46 40.5611C15.916 40.3451 15.444 40.0371 15.044 39.6371C14.652 39.2451 14.344 38.7771 14.12 38.2331C13.896 37.6971 13.784 37.1051 13.784 36.4571ZM14.72 36.4571C14.72 36.9531 14.812 37.4051 14.996 37.8131C15.18 38.2291 15.432 38.5851 15.752 38.8811C16.072 39.1771 16.444 39.4051 16.868 39.5651C17.3 39.7331 17.76 39.8171 18.248 39.8171C18.736 39.8171 19.192 39.7331 19.616 39.5651C20.048 39.4051 20.424 39.1771 20.744 38.8811C21.064 38.5851 21.316 38.2291 21.5 37.8131C21.684 37.4051 21.776 36.9531 21.776 36.4571C21.776 35.9611 21.684 35.5051 21.5 35.0891C21.316 34.6811 21.064 34.3291 20.744 34.0331C20.424 33.7371 20.048 33.5051 19.616 33.3371C19.192 33.1771 18.736 33.0971 18.248 33.0971C17.76 33.0971 17.3 33.1771 16.868 33.3371C16.444 33.5051 16.072 33.7371 15.752 34.0331C15.432 34.3291 15.18 34.6811 14.996 35.0891C14.812 35.5051 14.72 35.9611 14.72 36.4571ZM22.496 45.5169L22.496 46.5249L14.936 46.5249L14.936 50.4129L14 50.4129L14 45.5169L22.496 45.5169ZM22.496 54.5169L22.496 55.5249L14.936 55.5249L14.936 59.4129L14 59.4129L14 54.5169L22.496 54.5169ZM22.496 69.7008L22.496 72.9648C22.496 73.2448 22.464 73.5408 22.4 73.8528C22.336 74.1648 22.232 74.4728 22.088 74.7768C21.952 75.0888 21.772 75.3848 21.548 75.6648C21.324 75.9528 21.052 76.2048 20.732 76.4208C20.42 76.6368 20.056 76.8088 19.64 76.9368C19.232 77.0648 18.768 77.1288 18.248 77.1288C17.728 77.1288 17.26 77.0648 16.844 76.9368C16.436 76.8088 16.072 76.6368 15.752 76.4208C15.44 76.2048 15.172 75.9528 14.948 75.6648C14.724 75.3848 14.54 75.0888 14.396 74.7768C14.26 74.4728 14.16 74.1648 14.096 73.8528C14.032 73.5408 14 73.2448 14 72.9648L14 69.7008L22.496 69.7008ZM14.936 70.7088L14.936 72.6288C14.936 73.1168 15 73.5688 15.128 73.9848C15.256 74.4008 15.452 74.7608 15.716 75.0648C15.988 75.3688 16.332 75.6088 16.748 75.7848C17.164 75.9608 17.664 76.0488 18.248 76.0488C18.832 76.0488 19.332 75.9608 19.748 75.7848C20.164 75.6088 20.504 75.3688 20.768 75.0648C21.04 74.7608 21.24 74.4008 21.368 73.9848C21.496 73.5688 21.56 73.1168 21.56 72.6288L21.56 70.7088L14.936 70.7088ZM13.784 85.6993C13.784 85.0513 13.896 84.4553 14.12 83.9113C14.344 83.3753 14.652 82.9073 15.044 82.5073C15.444 82.1153 15.916 81.8073 16.46 81.5833C17.012 81.3673 17.608 81.2593 18.248 81.2593C18.888 81.2593 19.48 81.3673 20.024 81.5833C20.576 81.8073 21.048 82.1153 21.44 82.5073C21.84 82.9073 22.152 83.3753 22.376 83.9113C22.6 84.4553 22.712 85.0513 22.712 85.6993C22.712 86.3473 22.6 86.9393 22.376 87.4753C22.152 88.0193 21.84 88.4873 21.44 88.8793C21.048 89.2793 20.576 89.5873 20.024 89.8033C19.48 90.0273 18.888 90.1393 18.248 90.1393C17.608 90.1393 17.012 90.0273 16.46 89.8033C15.916 89.5873 15.444 89.2793 15.044 88.8793C14.652 88.4873 14.344 88.0193 14.12 87.4753C13.896 86.9393 13.784 86.3473 13.784 85.6993ZM14.72 85.6993C14.72 86.1953 14.812 86.6473 14.996 87.0553C15.18 87.4713 15.432 87.8273 15.752 88.1233C16.072 88.4193 16.444 88.6473 16.868 88.8073C17.3 88.9753 17.76 89.0593 18.248 89.0593C18.736 89.0593 19.192 88.9753 19.616 88.8073C20.048 88.6473 20.424 88.4193 20.744 88.1233C21.064 87.8273 21.316 87.4713 21.5 87.0553C21.684 86.6473 21.776 86.1953 21.776 85.6993C21.776 85.2033 21.684 84.7473 21.5 84.3313C21.316 83.9233 21.064 83.5713 20.744 83.2753C20.424 82.9793 20.048 82.7473 19.616 82.5793C19.192 82.4193 18.736 82.3393 18.248 82.3393C17.76 82.3393 17.3 82.4193 16.868 82.5793C16.444 82.7473 16.072 82.9793 15.752 83.2753C15.432 83.5713 15.18 83.9233 14.996 84.3313C14.812 84.7473 14.72 85.2033 14.72 85.6993ZM22.496 93.7751L22.496 94.8911L15.44 96.8231L15.44 96.8471L22.496 98.9351L22.496 100.063L15.44 102.139L15.44 102.163L22.496 104.131L22.496 105.187L14 102.691L14 101.599L21.2 99.4991L21.2 99.4751L14 97.3631L14 96.2591L22.496 93.7751ZM22.496 109.314L22.496 110.586L15.44 115.506L15.44 115.53L22.496 115.53L22.496 116.538L14 116.538L14 115.266L21.056 110.346L21.056 110.322L14 110.322L14 109.314L22.496 109.314Z" fill="white"/>
<path d="M25 128L17.5 134L10 128" stroke="white" stroke-linecap="round" stroke-linejoin="round"/>
</svg>
