<svg width="32" height="32" viewBox="0 0 32 32" fill="none" xmlns="http://www.w3.org/2000/svg">
<path fill-rule="evenodd" clip-rule="evenodd" d="M3.7396 28.0067C5.28553 27.6043 6.70765 27.2492 8.11702 26.8522C8.51761 26.7448 8.82352 26.8031 9.17677 27.0052C11.848 28.5438 14.7086 29.1192 17.7659 28.6258C24.8055 27.4968 29.629 20.9088 28.551 13.8948C27.4312 6.62578 20.6174 1.7458 13.414 3.06776C4.69921 4.66832 0.0741478 14.3828 4.40787 22.076C4.88858 22.9282 5.01968 23.6329 4.69739 24.5379C4.31136 25.6286 4.07464 26.7685 3.7396 28.0048V28.0067ZM0.126953 31.5702C0.301759 30.8946 0.454713 30.3083 0.611309 29.7201C1.1248 27.8428 1.65468 25.9673 2.14268 24.0845C2.21187 23.8041 2.18274 23.4308 2.04799 23.1777C-2.72274 14.0823 2.20095 3.07322 12.214 0.722454C21.3057 -1.40981 29.4833 4.72841 30.9746 12.937C32.5279 21.497 26.9286 29.6327 18.4342 31.1186C15.0582 31.7013 11.8298 31.206 8.74887 29.7074C8.47391 29.569 8.08606 29.5326 7.79472 29.6036C3.68861 30.6324 0.953637 31.4081 0.126953 31.5702Z" fill="white"/>
<path fill-rule="evenodd" clip-rule="evenodd" d="M19.7735 23.2469C16.7472 23.1395 11.9218 20.7487 8.61873 15.0092C7.44425 12.9698 7.61359 10.6446 9.33251 9.04765C9.91338 8.50502 10.6417 8.63795 11.3246 8.75448C11.4921 8.77998 11.6669 9.0349 11.7525 9.22609C12.1913 10.2276 12.6265 11.2291 13.0089 12.2561C13.211 12.7969 12.8395 13.3067 12.0547 14.2099C11.8053 14.4939 11.7543 14.7598 11.951 15.0912C13.2201 17.2417 14.9955 18.7985 17.3335 19.7126C17.6758 19.8437 17.9326 19.7618 18.1511 19.4923C19.3875 17.9828 19.5149 17.5403 20.165 17.8498C23.2987 19.3466 23.5427 19.4103 23.5573 19.7654C23.6629 22.4057 21.243 23.358 19.7735 23.2506V23.2469Z" fill="white"/>
</svg>
